<?xml version="1.0" standalone="no"?><!DOCTYPE svg PUBLIC "-//W3C//DTD SVG 1.1//EN" "http://www.w3.org/Graphics/SVG/1.1/DTD/svg11.dtd"><svg t="1573738302397" class="icon" viewBox="0 0 1024 1024" version="1.1" xmlns="http://www.w3.org/2000/svg" p-id="4098" xmlns:xlink="http://www.w3.org/1999/xlink" width="200" height="200"><defs><style type="text/css"></style></defs><path d="M123.00288 409.6h777.99424a41.02144 41.02144 0 0 1 39.85408 50.8928l-71.5776 285.4912A205.27104 205.27104 0 0 1 670.0032 901.12h-316.0064a205.27104 205.27104 0 0 1-199.2704-155.136L83.1488 460.4928A40.96 40.96 0 0 1 123.00288 409.6zM307.2 122.88h409.6a40.96 40.96 0 1 1 0 81.92H307.2a40.96 40.96 0 1 1 0-81.92z m-81.92 143.36h573.44a40.96 40.96 0 1 1 0 81.92H225.28a40.96 40.96 0 1 1 0-81.92z" p-id="4099"></path></svg>