<?xml version="1.0" standalone="no"?><!DOCTYPE svg PUBLIC "-//W3C//DTD SVG 1.1//EN" "http://www.w3.org/Graphics/SVG/1.1/DTD/svg11.dtd"><svg t="1573114261425" class="icon" viewBox="0 0 1024 1024" version="1.1" xmlns="http://www.w3.org/2000/svg" p-id="9532" xmlns:xlink="http://www.w3.org/1999/xlink" width="200" height="200"><defs><style type="text/css"></style></defs><path d="M625.54112 771.31776l84.74624-94.16704A25.8048 25.8048 0 0 0 716.8 659.8656c0-13.80352-10.58816-25.00608-23.63392-25.00608h-71.168c-26.15296 0-48.128-20.2752-50.8928-47.04256l-16.6912-160.13312A42.8032 42.8032 0 0 0 512 389.12a42.8032 42.8032 0 0 0-42.41408 38.58432l-16.6912 160.13312C450.10944 614.58432 428.15488 634.88 402.0224 634.88h-71.168c-6.06208 0-11.89888 2.4576-16.30208 6.90176a26.05056 26.05056 0 0 0-0.8192 35.36896l84.74624 94.16704A40.96 40.96 0 0 1 368.00512 839.68H327.68C180.6336 839.68 61.44 720.4864 61.44 573.44c0-118.784 77.76256-219.36128 185.15968-253.66528C306.15552 237.69088 402.8416 184.32 512 184.32c150.9376 0 278.016 102.03136 316.04736 240.86528A215.10144 215.10144 0 0 1 962.56 624.64C962.56 743.40352 866.28352 839.68 747.52 839.68h-91.52512a40.96 40.96 0 0 1-30.45376-68.36224z" p-id="9533"></path></svg>