<?xml version="1.0" standalone="no"?><!DOCTYPE svg PUBLIC "-//W3C//DTD SVG 1.1//EN" "http://www.w3.org/Graphics/SVG/1.1/DTD/svg11.dtd"><svg t="1573615855798" class="icon" viewBox="0 0 1024 1024" version="1.1" xmlns="http://www.w3.org/2000/svg" p-id="4210" xmlns:xlink="http://www.w3.org/1999/xlink" width="200" height="200"><defs><style type="text/css"></style></defs><path d="M356.12672 870.13376A105.96352 105.96352 0 0 1 280.69888 901.12l-121.56928-0.49152a35.96288 35.96288 0 0 1-35.75808-35.75808L122.88 743.30112a105.96352 105.96352 0 0 1 30.98624-75.42784L672.0512 146.26816a79.11424 79.11424 0 0 1 111.90272-0.43008l94.0032 94.0032a79.11424 79.11424 0 0 1 0 111.88224l-521.8304 518.41024zM752.78336 368.64L819.2 304.27136 719.72864 204.8 655.36 271.21664 752.78336 368.64zM298.72128 134.88128L430.08 266.24l-163.84 163.84-131.35872-131.35872a40.96 40.96 0 0 1 0-57.93792l105.90208-105.90208a40.96 40.96 0 0 1 57.93792 0z m426.55744 754.23744L593.92 757.76l163.84-163.84 131.35872 131.35872a40.96 40.96 0 0 1 0 57.93792l-105.90208 105.90208a40.96 40.96 0 0 1-57.93792 0z" p-id="4211"></path></svg>