<?xml version="1.0" standalone="no"?><!DOCTYPE svg PUBLIC "-//W3C//DTD SVG 1.1//EN" "http://www.w3.org/Graphics/SVG/1.1/DTD/svg11.dtd"><svg t="1571820047087" class="icon" viewBox="0 0 1024 1024" version="1.1" xmlns="http://www.w3.org/2000/svg" p-id="5210" xmlns:xlink="http://www.w3.org/1999/xlink" width="200" height="200"><defs><style type="text/css"></style></defs><path d="M305.43872 660.62336l61.76768-61.76768A295.64928 295.64928 0 0 1 307.2 419.84C307.2 255.83616 440.15616 122.88 604.16 122.88S901.12 255.83616 901.12 419.84 768.16384 716.8 604.16 716.8c-67.23584 0-129.2288-22.34368-179.01568-60.0064l-61.76768 61.76768a40.96 40.96 0 0 0 0 57.91744l54.70208 54.72256a40.96 40.96 0 0 1-57.91744 57.91744l-54.72256-54.70208a40.96 40.96 0 0 0-57.91744 0l-54.72256 54.70208a40.96 40.96 0 0 1-57.91744-57.91744l54.70208-54.72256a40.96 40.96 0 0 0 0-57.91744l-54.70208-54.72256a40.96 40.96 0 0 1 57.91744-57.91744l54.72256 54.70208a40.96 40.96 0 0 0 57.91744 0zM604.16 225.28a194.56 194.56 0 0 0-194.56 194.56 40.96 40.96 0 1 0 81.92 0 112.64 112.64 0 0 1 112.64-112.64 40.96 40.96 0 1 0 0-81.92z" p-id="5211"></path></svg>