<?xml version="1.0" standalone="no"?><!DOCTYPE svg PUBLIC "-//W3C//DTD SVG 1.1//EN" "http://www.w3.org/Graphics/SVG/1.1/DTD/svg11.dtd"><svg t="1571710375465" class="icon" viewBox="0 0 1024 1024" version="1.1" xmlns="http://www.w3.org/2000/svg" p-id="1306" xmlns:xlink="http://www.w3.org/1999/xlink" width="200" height="200"><defs><style type="text/css"></style></defs><path d="M216.615385 374.153846h78.76923c11.815385 0 19.692308-5.907692 19.692308-17.723077V354.461538c0-112.246154 96.492308-204.8 210.707692-196.923076 104.369231 7.876923 183.138462 98.461538 183.138462 204.8v-5.907693c0 11.815385 7.876923 17.723077 19.692308 17.723077h78.76923c11.815385 0 19.692308-5.907692 19.692308-17.723077V354.461538c0-179.2-149.661538-322.953846-330.830769-315.076923-167.384615 7.876923-295.384615 149.661538-299.323077 317.046154 1.969231 9.846154 9.846154 17.723077 19.692308 17.723077z m-19.692308-17.723077v7.876923-7.876923zM905.846154 531.692308c0-43.323077-35.446154-78.769231-78.769231-78.769231H196.923077c-43.323077 0-78.769231 35.446154-78.769231 78.769231v374.153846c0 43.323077 35.446154 78.769231 78.769231 78.769231h630.153846c43.323077 0 78.769231-35.446154 78.769231-78.769231V531.692308zM602.584615 840.861538c3.938462 11.815385-5.907692 25.6-19.692307 25.6h-143.753846c-13.784615 0-21.661538-11.815385-19.692308-25.6l35.446154-118.153846c-29.538462-19.692308-47.261538-55.138462-41.353846-94.523077 7.876923-37.415385 37.415385-66.953846 76.8-74.830769 63.015385-11.815385 118.153846 33.476923 118.153846 92.553846 0 31.507692-15.753846 61.046154-41.353846 76.8l35.446153 118.153846z" p-id="1307"></path></svg>