<?xml version="1.0" standalone="no"?><!DOCTYPE svg PUBLIC "-//W3C//DTD SVG 1.1//EN" "http://www.w3.org/Graphics/SVG/1.1/DTD/svg11.dtd"><svg t="1571820042488" class="icon" viewBox="0 0 1024 1024" version="1.1" xmlns="http://www.w3.org/2000/svg" p-id="5093" xmlns:xlink="http://www.w3.org/1999/xlink" width="200" height="200"><defs><style type="text/css"></style></defs><path d="M784.24064 297.69728l-127.44704 127.44704A295.64928 295.64928 0 0 1 716.8 604.16C716.8 768.16384 583.84384 901.12 419.84 901.12S122.88 768.16384 122.88 604.16 255.83616 307.2 419.84 307.2c67.23584 0 129.2288 22.34368 179.01568 60.0064l127.44704-127.44704A20.48 20.48 0 0 0 711.82336 204.8H634.88a40.96 40.96 0 1 1 0-81.92h225.28a40.96 40.96 0 0 1 40.96 40.96v225.28a40.96 40.96 0 1 1-81.92 0v-76.94336a20.48 20.48 0 0 0-34.95936-14.47936zM419.84 409.6a194.56 194.56 0 0 0-194.56 194.56 40.96 40.96 0 1 0 81.92 0 112.64 112.64 0 0 1 112.64-112.64 40.96 40.96 0 1 0 0-81.92z" p-id="5094"></path></svg>