<?xml version="1.0" standalone="no"?><!DOCTYPE svg PUBLIC "-//W3C//DTD SVG 1.1//EN" "http://www.w3.org/Graphics/SVG/1.1/DTD/svg11.dtd"><svg t="1573741834360" class="icon" viewBox="0 0 1024 1024" version="1.1" xmlns="http://www.w3.org/2000/svg" p-id="6634" xmlns:xlink="http://www.w3.org/1999/xlink" width="200" height="200"><defs><style type="text/css"></style></defs><path d="M512.005103 0C229.242574 0 0.012757 229.224714 0.012757 511.992346c0 282.767632 229.229817 512.007654 511.992346 512.007654 282.767632 0 511.98214-229.245125 511.98214-512.007654C1023.987243 229.229817 794.767632 0 512.005103 0zM861.057162 546.991952c0 19.30872-15.66027 39.806375-35.004709 39.806375l-61.370501 0c-5.786493 12.465963-13.925343 38.367406-24.406345 56.844382l43.419106 40.928975c13.690617 13.690617 13.823288 35.841556 0.173493 49.501557l-49.190291 49.476044c-13.665104 13.660001-35.183305 13.660001-48.868819-0.025514l-42.138322-43.342565c-18.487181 10.486105-44.403933 18.701495-56.869895 24.487988l0 61.370501c0 19.359747-20.507861 35.020017-39.816581 35.020017L477.005496 861.059713c-19.30872 0-39.801273-15.66027-39.801273-35.004709l0-61.370501c-12.465963-5.786493-38.387817-13.925343-56.85969-24.411447l-40.928975 43.419106c-13.685515 13.690617-35.851762 13.828391-49.501557 0.178595l-49.476044-49.190291c-13.665104-13.665104-13.665104-35.183305 0.025514-48.868819l43.347668-42.148527c-10.470796-18.476975-18.686187-44.393727-24.47268-56.85969L197.962856 586.80343c-19.359747 0-35.020017-20.502758-35.020017-39.816581L162.942838 477.002945c0-19.30872 15.66027-39.801273 35.020017-39.801273l61.355193 0c5.78139-12.465963 13.915137-38.387817 24.411447-56.85969l-43.419106-40.928975c-13.690617-13.700823-13.813083-35.851762-0.163287-49.501557l49.180085-49.491352c13.649795-13.660001 35.19351-13.660001 48.884127 0.025514l42.133219 43.342565c18.476975-10.481002 44.393727-18.686187 56.85969-24.467577L437.204224 197.950099c0-19.344439 20.492553-35.004709 39.816581-35.004709l69.968596 0c19.30872 0 39.806375 15.66027 39.806375 35.004709l0 61.360295c12.465963 5.78139 38.398023 13.925343 56.844382 24.411447l40.928975-43.408901c13.690617-13.675309 35.841556-13.823288 49.501557-0.163287l49.481146 49.180085c13.675309 13.665104 13.660001 35.19351-0.025514 48.884127l-43.342565 42.123014c10.49631 18.471873 18.696393 44.403933 24.482885 56.869895l61.370501 0c19.359747 0 35.020017 20.492553 35.020017 39.816581L861.057162 546.991952z" p-id="6635"></path><path d="M512 354.547696c-86.950473 0-157.434444 70.483972-157.434444 157.439547 0 86.940267 70.483972 157.424239 157.434444 157.424239 86.965781 0 157.439547-70.483972 157.439547-157.424239C669.434444 425.031668 598.965781 354.547696 512 354.547696z" p-id="6636"></path></svg>