<?xml version="1.0" standalone="no"?><!DOCTYPE svg PUBLIC "-//W3C//DTD SVG 1.1//EN" "http://www.w3.org/Graphics/SVG/1.1/DTD/svg11.dtd"><svg t="1571801497492" class="icon" viewBox="0 0 1024 1024" version="1.1" xmlns="http://www.w3.org/2000/svg" p-id="5809" xmlns:xlink="http://www.w3.org/1999/xlink" width="200" height="200"><defs><style type="text/css"></style></defs><path d="M512 61.44c13.312 0 25.25184 7.63904 29.94176 19.16928l27.56608 67.97312c11.91936 29.34784-4.17792 62.07488-35.9424 73.09312A65.9456 65.9456 0 0 1 512 225.28c-33.93536 0-61.44-25.41568-61.44-56.77056 0-6.79936 1.3312-13.55776 3.91168-19.92704l27.58656-67.97312C486.72768 69.07904 498.64704 61.44 512 61.44z m0 901.12c-13.33248 0-25.27232-7.63904-29.94176-19.16928l-27.58656-67.97312a52.96128 52.96128 0 0 1-3.91168-19.92704C450.56 824.15616 478.06464 798.72 512 798.72c7.3728 0 14.66368 1.2288 21.56544 3.60448 31.76448 11.01824 47.86176 43.74528 35.9424 73.1136l-27.56608 67.95264c-4.68992 11.53024-16.62976 19.16928-29.94176 19.16928z m450.56-450.56c0 13.312-7.63904 25.25184-19.16928 29.94176l-67.97312 27.56608c-29.34784 11.91936-62.07488-4.17792-73.09312-35.9424A65.9456 65.9456 0 0 1 798.72 512c0-33.93536 25.41568-61.44 56.77056-61.44 6.79936 0 13.55776 1.3312 19.92704 3.91168l67.97312 27.58656c11.53024 4.66944 19.16928 16.5888 19.16928 29.94176zM61.44 512c0-13.33248 7.63904-25.27232 19.16928-29.94176l67.97312-27.58656c6.3488-2.58048 13.1072-3.91168 19.92704-3.91168C199.84384 450.56 225.28 478.06464 225.28 512c0 7.3728-1.2288 14.66368-3.60448 21.56544-11.01824 31.76448-43.74528 47.86176-73.1136 35.9424l-67.95264-27.56608C69.07904 537.25184 61.44 525.312 61.44 512zM193.39264 193.41312c9.4208-9.4208 23.26528-12.45184 34.73408-7.61856l67.56352 28.54912c29.184 12.34944 40.93952 46.85824 26.25536 77.1072a65.9456 65.9456 0 0 1-12.6976 17.8176c-23.98208 23.98208-61.39904 25.45664-83.5584 3.2768a52.96128 52.96128 0 0 1-11.34592-16.85504L185.79456 228.1472c-4.85376-11.4688-1.82272-25.31328 7.59808-34.73408z m637.19424 637.19424c-9.4208 9.4208-23.26528 12.45184-34.73408 7.59808l-67.54304-28.54912a52.96128 52.96128 0 0 1-16.87552-11.32544c-22.15936-22.17984-20.6848-59.5968 3.29728-83.57888a65.9456 65.9456 0 0 1 17.8176-12.6976c30.24896-14.68416 64.75776-2.92864 77.1072 26.25536l28.54912 67.56352c4.83328 11.4688 1.80224 25.2928-7.61856 34.73408z m0-637.21472c9.4208 9.4208 12.45184 23.26528 7.61856 34.73408l-28.54912 67.56352c-12.34944 29.184-46.85824 40.93952-77.1072 26.25536a65.9456 65.9456 0 0 1-17.8176-12.6976c-23.98208-23.98208-25.45664-61.39904-3.2768-83.5584 4.79232-4.83328 10.50624-8.66304 16.85504-11.34592l67.54304-28.54912c11.4688-4.85376 25.31328-1.82272 34.73408 7.59808zM193.39264 830.58688c-9.4208-9.4208-12.45184-23.26528-7.59808-34.73408l28.54912-67.54304c2.6624-6.3488 6.51264-12.06272 11.32544-16.87552 22.17984-22.15936 59.5968-20.6848 83.57888 3.29728 5.2224 5.2224 9.5232 11.264 12.6976 17.8176 14.68416 30.24896 2.92864 64.75776-26.25536 77.1072l-67.56352 28.54912c-11.4688 4.83328-25.2928 1.80224-34.73408-7.61856zM512 737.28c-124.416 0-225.28-100.864-225.28-225.28s100.864-225.28 225.28-225.28 225.28 100.864 225.28 225.28-100.864 225.28-225.28 225.28z" p-id="5810"></path></svg>