<?xml version="1.0" standalone="no"?><!DOCTYPE svg PUBLIC "-//W3C//DTD SVG 1.1//EN" "http://www.w3.org/Graphics/SVG/1.1/DTD/svg11.dtd"><svg t="1572923425890" class="icon" viewBox="0 0 1024 1024" version="1.1" xmlns="http://www.w3.org/2000/svg" p-id="4144" xmlns:xlink="http://www.w3.org/1999/xlink" width="200" height="200"><defs><style type="text/css"></style></defs><path d="M441.07776 464.4864A61.44 61.44 0 0 0 379.98592 409.6h-85.4016c-7.2704 0-14.27456-2.8672-19.53792-8.04864a29.77792 29.77792 0 0 1-0.98304-41.2672L481.19808 136.45824a41.69728 41.69728 0 0 1 61.60384 0l207.13472 223.8464c5.0176 5.40672 7.82336 12.61568 7.82336 20.11136 0 16.11776-12.6976 29.184-28.3648 29.184h-85.4016a61.44 61.44 0 0 0-61.07136 54.8864l-20.00896 186.81856C560.16896 676.90496 538.19392 696.32 512 696.32c-26.19392 0-48.16896-19.43552-50.91328-45.01504l-20.00896-186.81856z m-226.34496 189.6448l23.26528 93.0816A40.96 40.96 0 0 0 277.72928 778.24h468.52096a40.96 40.96 0 0 0 39.7312-31.0272l23.28576-93.0816A52.46976 52.46976 0 0 1 860.16 614.4a40.96 40.96 0 0 1 40.96 40.96v143.36a102.4 102.4 0 0 1-102.4 102.4H225.28a102.4 102.4 0 0 1-102.4-102.4v-143.36a40.96 40.96 0 0 1 40.96-40.96c24.064 0 45.056 16.384 50.8928 39.7312z" p-id="4145"></path></svg>