<?xml version="1.0" standalone="no"?><!DOCTYPE svg PUBLIC "-//W3C//DTD SVG 1.1//EN" "http://www.w3.org/Graphics/SVG/1.1/DTD/svg11.dtd"><svg t="1571836672446" class="icon" viewBox="0 0 1024 1024" version="1.1" xmlns="http://www.w3.org/2000/svg" p-id="5077" xmlns:xlink="http://www.w3.org/1999/xlink" width="200" height="200"><defs><style type="text/css"></style></defs><path d="M838.69696 602.80832l-44.38016 199.43424A204.8 204.8 0 0 1 594.41152 962.56h-164.82304a204.8 204.8 0 0 1-199.8848-160.31744l-44.40064-199.43424a40.96 40.96 0 0 1 16.1792-42.20928C303.65696 487.60832 407.3472 450.56 512 450.56s208.34304 37.04832 310.53824 110.03904a40.96 40.96 0 0 1 16.1792 42.20928zM478.28992 637.952a50.42176 50.42176 0 0 1-45.13792 45.13792l-59.904 6.00064a27.8528 27.8528 0 0 0 0 55.41888l59.904 6.00064a50.42176 50.42176 0 0 1 45.13792 45.13792l6.00064 59.904a27.8528 27.8528 0 0 0 55.41888 0l6.00064-59.904a50.42176 50.42176 0 0 1 45.13792-45.13792l59.904-6.00064a27.8528 27.8528 0 0 0 0-55.41888l-59.904-6.00064a50.42176 50.42176 0 0 1-45.13792-45.13792l-6.00064-59.904a27.8528 27.8528 0 0 0-55.41888 0l-6.00064 59.904zM478.14656 61.44h67.70688a122.88 122.88 0 0 1 122.4704 133.07904l-4.608 54.9888a152.24832 152.24832 0 0 1-303.43168 0l-4.58752-54.9888A122.88 122.88 0 0 1 478.16704 61.44z" p-id="5078"></path></svg>